<svg width="16" height="18" viewBox="0 0 16 18" fill="none" xmlns="http://www.w3.org/2000/svg">
<path d="M1 4.19995H2.6H15.4" stroke="#212B36" stroke-opacity="0.45" stroke-width="1.2" stroke-linecap="round" stroke-linejoin="round"/>
<path d="M5.0001 4.2V2.6C5.0001 2.17565 5.16867 1.76869 5.46873 1.46863C5.76879 1.16857 6.17575 1 6.6001 1H9.8001C10.2244 1 10.6314 1.16857 10.9315 1.46863C11.2315 1.76869 11.4001 2.17565 11.4001 2.6V4.2M13.8001 4.2V15.4C13.8001 15.8243 13.6315 16.2313 13.3315 16.5314C13.0314 16.8314 12.6244 17 12.2001 17H4.2001C3.77575 17 3.36878 16.8314 3.06873 16.5314C2.76867 16.2313 2.6001 15.8243 2.6001 15.4V4.2H13.8001Z" stroke="#212B36" stroke-opacity="0.45" stroke-width="1.2" stroke-linecap="round" stroke-linejoin="round"/>
<path d="M6.6001 8.19995V13" stroke="#212B36" stroke-opacity="0.45" stroke-width="1.2" stroke-linecap="round" stroke-linejoin="round"/>
<path d="M9.80005 8.19995V13" stroke="#212B36" stroke-opacity="0.45" stroke-width="1.2" stroke-linecap="round" stroke-linejoin="round"/>
</svg>
