<svg width="22" height="17" viewBox="0 0 22 17" fill="none" xmlns="http://www.w3.org/2000/svg">
<path d="M9.20614 5.86381C9.39557 5.61987 9.6871 5.47714 9.99597 5.47714H19.3274C20.1592 5.47714 20.6274 6.4335 20.1172 7.09047L13.1639 16.0448C12.9744 16.2887 12.6829 16.4315 12.374 16.4315H3.04264C2.21085 16.4315 1.74265 15.4751 2.25281 14.8181L9.20614 5.86381Z" fill="#5063FF" fill-opacity="0.25"/>
<path d="M8.8204 0.386672C9.00983 0.142723 9.30136 0 9.61022 0H18.9416C19.7734 0 20.2416 0.956359 19.7315 1.61333L12.7781 10.5676C12.5887 10.8116 12.2972 10.9543 11.9883 10.9543H2.65689C1.8251 10.9543 1.3569 9.99795 1.86706 9.34098L8.8204 0.386672Z" fill="#5063FF"/>
</svg>
