<svg width="18" height="19" viewBox="0 0 18 19" fill="none" xmlns="http://www.w3.org/2000/svg">
<path fill-rule="evenodd" clip-rule="evenodd" d="M7.36957 2.28197C8.92609 1.93029 10.5546 2.09119 12.0122 2.74066C12.3149 2.87553 12.6696 2.73949 12.8044 2.4368C12.9393 2.13412 12.8033 1.77941 12.5006 1.64455C10.8066 0.889757 8.91404 0.702769 7.10511 1.11147C5.29618 1.52018 3.66783 2.50267 2.46291 3.91243C1.25799 5.32219 0.541054 7.08367 0.419033 8.93417C0.297011 10.7847 0.77644 12.6251 1.78582 14.1808C2.79519 15.7366 4.28044 16.9244 6.02003 17.5671C7.75963 18.2098 9.66038 18.2729 11.4388 17.7471C13.2172 17.2213 14.778 16.1347 15.8884 14.6493C16.9988 13.164 17.5993 11.3595 17.6004 9.50494V9.5046V8.7686C17.6004 8.43723 17.3318 8.1686 17.0004 8.1686C16.669 8.1686 16.4004 8.43723 16.4004 8.7686V9.50426C16.3995 11.1 15.8828 12.6527 14.9273 13.9308C13.9718 15.2089 12.6288 16.1439 11.0986 16.5963C9.56829 17.0488 7.93276 16.9945 6.4359 16.4414C4.93903 15.8884 3.66103 14.8664 2.7925 13.5277C1.92397 12.189 1.51144 10.6054 1.61643 9.01313C1.72143 7.42084 2.33832 5.90514 3.37512 4.69209C4.41191 3.47905 5.81305 2.63364 7.36957 2.28197ZM17.4245 3.52863C17.6587 3.2942 17.6585 2.9143 17.424 2.6801C17.1896 2.4459 16.8097 2.44609 16.5755 2.68053L8.99979 10.2638L7.02426 8.28831C6.78995 8.054 6.41005 8.054 6.17574 8.28831C5.94142 8.52263 5.94142 8.90253 6.17574 9.13684L8.57574 11.5368C8.68829 11.6494 8.84097 11.7126 9.00015 11.7126C9.15933 11.7125 9.31197 11.6492 9.42448 11.5366L17.4245 3.52863Z" fill="#5063FF"/>
</svg>
