<svg width="5" height="20" viewBox="0 0 5 20" fill="none" xmlns="http://www.w3.org/2000/svg">
<path fill-rule="evenodd" clip-rule="evenodd" d="M0.33252 18C0.33252 16.8953 1.22785 16 2.33252 16C3.43719 16 4.33252 16.8953 4.33252 18C4.33252 19.1047 3.43719 20 2.33252 20C1.22785 20 0.33252 19.1047 0.33252 18Z" fill="#173630" fill-opacity="0.45"/>
<path fill-rule="evenodd" clip-rule="evenodd" d="M0.33252 10.0001C0.33252 8.89539 1.22785 8.00006 2.33252 8.00006C3.43719 8.00006 4.33252 8.89539 4.33252 10.0001C4.33252 11.1047 3.43719 12.0001 2.33252 12.0001C1.22785 12.0001 0.33252 11.1047 0.33252 10.0001Z" fill="#173630" fill-opacity="0.45"/>
<path fill-rule="evenodd" clip-rule="evenodd" d="M0.33252 2.00009C0.33252 0.895425 1.22785 9.10759e-05 2.33252 9.10759e-05C3.43719 9.10759e-05 4.33252 0.895425 4.33252 2.00009C4.33252 3.10476 3.43719 4.00009 2.33252 4.00009C1.22785 4.00009 0.33252 3.10476 0.33252 2.00009Z" fill="#173630" fill-opacity="0.45"/>
</svg>
