<svg xmlns="http://www.w3.org/2000/svg" width="158.02" height="149.533" viewBox="0 0 158.02 149.533"><g transform="translate(-15048.483 -12691.467)"><g transform="translate(0 -0.856)"><path d="M15076.55,12801.857h107.1s20.351-2.951,20.351-23.249-20.351-22.411-20.351-22.411.441-20.425-13.92-29.745-29.289-3.461-29.289-3.461-10.038-33.548-39.525-27.376-27.629,32.706-24.871,41.007c-16.088,6.457-28.684,20.309-24.087,41.986S15076.55,12801.857,15076.55,12801.857Z" transform="translate(0.001 -0.001)" fill="none" stroke="#8791a8" stroke-linecap="round" stroke-linejoin="round" stroke-width="5"/><path d="M15101.932,12780.226s2.559-12.86,16.432-12.86,15.611,12.86,15.611,12.86" transform="translate(-0.302 -1.211)" fill="none" stroke="#8791a8" stroke-linecap="round" stroke-width="5"/><ellipse cx="4.97" cy="5" rx="4.97" ry="5" transform="translate(15101.698 12741.865)" fill="#8791a8"/><ellipse cx="4.97" cy="5" rx="4.97" ry="5" transform="translate(15124.562 12740.868)" fill="#8791a8"/></g><text transform="translate(15056 12836)" fill="#8791a8" font-size="18" font-family="SegoeUI, Segoe UI"><tspan x="0" y="0">Nothing here yet.</tspan></text></g></svg>