<svg width="26" height="24" viewBox="0 0 26 24" fill="none" xmlns="http://www.w3.org/2000/svg">
<path fill-rule="evenodd" clip-rule="evenodd" d="M14.5196 23.2182C14.9648 23.2182 15.3261 22.8638 15.3261 22.427V12.9323C15.3261 12.4955 14.9648 12.1411 14.5196 12.1411H9.68096C9.2358 12.1411 8.87451 12.4955 8.87451 12.9323V22.427C8.87451 22.8638 9.2358 23.2182 9.68096 23.2182H14.5196Z" fill="#5567FF"/>
<path fill-rule="evenodd" clip-rule="evenodd" d="M1.6165 23.2183H6.45517C6.90032 23.2183 7.26161 22.8638 7.26161 22.427V17.6797C7.26161 17.2429 6.90032 16.8884 6.45517 16.8884H1.6165C1.17135 16.8884 0.810059 17.2429 0.810059 17.6797V22.427C0.810059 22.8638 1.17135 23.2183 1.6165 23.2183Z" fill="#5567FF"/>
<path fill-rule="evenodd" clip-rule="evenodd" d="M23.3907 22.427V8.97609H25.0035C25.3011 8.97609 25.5745 8.81547 25.7148 8.55832C25.8552 8.30038 25.8398 7.98864 25.6745 7.74573L20.8358 0.624681C20.5367 0.184758 19.7931 0.184758 19.4939 0.624681L14.6553 7.74573C14.4899 7.98864 14.4746 8.30038 14.6149 8.55832C14.7553 8.81547 15.0286 8.97609 15.3262 8.97609H16.9391V22.427C16.9391 22.8637 17.3004 23.2182 17.7456 23.2182H22.5842C23.0294 23.2182 23.3907 22.8637 23.3907 22.427Z" fill="#5567FF"/>
</svg>
