<svg width="20" height="20" viewBox="0 0 20 20" fill="none" xmlns="http://www.w3.org/2000/svg">
<path fill-rule="evenodd" clip-rule="evenodd" d="M12.875 10.5L7.875 14.25C7.765 14.3331 7.6325 14.375 7.5 14.375C7.405 14.375 7.30937 14.3531 7.22062 14.3094C7.00875 14.2031 6.875 13.9869 6.875 13.75V6.24999C6.875 6.01312 7.00875 5.79749 7.22062 5.69124C7.43187 5.58562 7.68563 5.60687 7.875 5.74999L12.875 9.49999C13.0325 9.61812 13.125 9.80374 13.125 9.99999C13.125 10.1969 13.0325 10.3825 12.875 10.5ZM19.375 0H0.625C0.28 0 0 0.279375 0 0.625V19.375C0 19.7206 0.28 20 0.625 20H19.375C19.7206 20 20 19.7206 20 19.375V0.625C20 0.279375 19.7206 0 19.375 0Z" fill="#4E6762" fill-opacity="0.75"/>
</svg>
