<svg width="39" height="12" viewBox="0 0 39 12" fill="none" xmlns="http://www.w3.org/2000/svg">
<path d="M16.1727 0.335007L14.2378 11.6897H17.3324L19.2688 0.335007H16.1727Z" fill="black"/>
<path d="M11.6428 0.347755L8.61195 8.09131L8.28881 6.9221C7.69107 5.51331 5.99415 3.49007 4.00195 2.215L6.77337 11.6841L10.0478 11.6785L14.9213 0.345367L11.6428 0.347755Z" fill="black"/>
<path d="M7.11415 1.16038C6.93428 0.468718 6.41294 0.262573 5.76586 0.2379H0.968019L0.928223 0.463943C4.66191 1.36971 7.13246 3.55213 8.15761 6.1763L7.11415 1.16038Z" fill="black"/>
<path d="M25.5404 2.51187C26.5529 2.49595 27.2867 2.71722 27.8566 2.94645L28.136 3.07778L28.5546 0.616773C27.9418 0.386751 26.9811 0.140015 25.7824 0.140015C22.7245 0.140015 20.5691 1.68013 20.5524 3.88723C20.5325 5.51808 22.0877 6.42862 23.2625 6.97224C24.4683 7.52939 24.8727 7.88357 24.8671 8.38103C24.8575 9.14114 23.9056 9.48975 23.0166 9.48975C21.7773 9.48975 21.1191 9.31863 20.1027 8.89519L19.7039 8.71372L19.2686 11.2551C19.9928 11.5727 21.3292 11.8457 22.7165 11.86C25.9695 11.86 28.0834 10.3382 28.1057 7.97988C28.1192 6.68968 27.2939 5.70512 25.5054 4.89726C24.423 4.37036 23.7608 4.02015 23.7671 3.48847C23.7671 3.01649 24.329 2.51187 25.5404 2.51187Z" fill="black"/>
<path d="M36.4963 0.347748H34.1053C33.3627 0.347748 32.8104 0.549913 32.484 1.29012L27.8892 11.6961H31.1389C31.1389 11.6961 31.669 10.2968 31.7892 9.99038C32.145 9.99038 35.3024 9.99516 35.7521 9.99516C35.8444 10.3915 36.1294 11.6961 36.1294 11.6961H39.0003L36.4963 0.347748ZM32.6798 7.66628C32.9345 7.01442 33.9127 4.49293 33.9127 4.49293C33.896 4.52397 34.165 3.83629 34.325 3.40888L34.5335 4.38787C34.5335 4.38787 35.1265 7.09879 35.2507 7.66628H32.6798Z" fill="black"/>
</svg>
