<svg width="32" height="38" viewBox="0 0 32 38" fill="none" xmlns="http://www.w3.org/2000/svg">
<path d="M9 33C10.3862 35.7724 13.3207 37.707 16.7394 37.707C20.158 37.707 23.0927 35.7724 24.4788 33H9V33Z" fill="white"/>
<path d="M31.7869 30.919L29.0482 26.5476C27.7833 24.53 27.115 22.219 27.115 19.8668V16.0376C27.115 11.2034 23.7462 7.11462 19.1396 5.79646V3.05481C19.1396 1.37007 17.7088 0 15.9495 0C14.1901 0 12.7593 1.37007 12.7593 3.05481V5.79646C8.15283 7.11462 4.78405 11.2034 4.78405 16.0376V19.8668C4.78405 22.219 4.1157 24.5284 2.85241 26.5461L0.11371 30.9175C-0.0346305 31.1543 -0.0378455 31.4476 0.10414 31.6873C0.246125 31.9271 0.509311 32.0753 0.796422 32.0753H31.1026C31.3897 32.0753 31.6544 31.9272 31.7964 31.6889C31.9384 31.4506 31.9336 31.1542 31.7869 30.919Z" fill="white"/>
</svg>
