<svg width="26" height="26" viewBox="0 0 26 26" fill="none" xmlns="http://www.w3.org/2000/svg">
<path d="M16.0225 18.0668H1V1H24.4669V12.0225" stroke="#5063FF" stroke-width="1.5" stroke-linecap="round" stroke-linejoin="round"/>
<path fill-rule="evenodd" clip-rule="evenodd" d="M10.5996 9.53341C10.5996 8.35526 11.5548 7.40005 12.733 7.40005C13.9111 7.40005 14.8663 8.35526 14.8663 9.53341C14.8663 10.7116 13.9111 11.6668 12.733 11.6668C11.5548 11.6668 10.5996 10.7116 10.5996 9.53341V9.53341Z" stroke="#5063FF" stroke-width="1.5" stroke-linecap="round" stroke-linejoin="round"/>
<path d="M21.267 10.0666V7.39992C19.4995 7.39992 18.067 5.96737 18.067 4.19989H7.40023C7.40023 5.96737 5.96768 7.39992 4.2002 7.39992V11.6666C5.96768 11.6666 7.40023 13.0997 7.40023 14.8667H15.8894" stroke="#5063FF" stroke-width="1.5" stroke-linecap="round" stroke-linejoin="round"/>
<path d="M23.5107 21.521C24.1086 21.888 24.467 22.3568 24.467 22.8666C24.467 24.0453 22.5566 25 20.2003 25C17.8435 25 15.9336 24.0453 15.9336 22.8666C15.9336 22.3632 16.2829 21.8997 16.8675 21.5349" stroke="#5063FF" stroke-width="1.5" stroke-linecap="round" stroke-linejoin="round"/>
<path d="M23.5171 18.858C24.1113 19.2244 24.467 19.6916 24.467 20.1999C24.467 21.3786 22.5566 22.3333 20.2003 22.3333C17.844 22.3333 15.9336 21.3786 15.9336 20.1999C15.9336 19.6879 16.2952 19.2175 16.8973 18.85" stroke="#5063FF" stroke-width="1.5" stroke-linecap="round" stroke-linejoin="round"/>
<path d="M23.4803 16.1691C24.0963 16.5387 24.467 17.0144 24.467 17.5334C24.467 18.7115 22.5566 19.6667 20.2003 19.6667C17.844 19.6667 15.9336 18.7115 15.9336 17.5334C15.9336 17.031 16.2808 16.5696 16.8616 16.2048" stroke="#5063FF" stroke-width="1.5" stroke-linecap="round" stroke-linejoin="round"/>
<path d="M23.5082 13.5197C24.1071 13.8872 24.466 14.356 24.466 14.8669C24.466 16.045 22.5561 17.0002 20.1993 17.0002C17.843 17.0002 15.9326 16.045 15.9326 14.8669C15.9326 14.3554 16.2926 13.8861 16.8926 13.5186" stroke="#5063FF" stroke-width="1.5" stroke-linecap="round" stroke-linejoin="round"/>
<path fill-rule="evenodd" clip-rule="evenodd" d="M24.467 12.2001C24.467 13.3782 22.5566 14.3335 20.2003 14.3335C17.844 14.3335 15.9336 13.3782 15.9336 12.2001C15.9336 11.022 17.844 10.0667 20.2003 10.0667C22.5566 10.0667 24.467 11.022 24.467 12.2001V12.2001Z" stroke="#5063FF" stroke-width="1.5" stroke-linecap="round" stroke-linejoin="round"/>
</svg>
