<svg width="29" height="31" viewBox="0 0 29 31" fill="none" xmlns="http://www.w3.org/2000/svg">
<g filter="url(#filter0_d)">
<path fill-rule="evenodd" clip-rule="evenodd" d="M12 12.0645C11.6083 12.0645 11.2903 12.3824 11.2903 12.7742V21.2903C11.2903 21.6821 11.6083 22 12 22H16.2581C16.6498 22 16.9678 21.6821 16.9678 21.2903V12.7742C16.9678 12.3824 16.6498 12.0645 16.2581 12.0645H12Z" fill="#50B83C"/>
<path fill-rule="evenodd" clip-rule="evenodd" d="M4.1936 17.0322V21.2903C4.1936 21.6821 4.51154 22 4.90328 22H9.16135C9.55309 22 9.87102 21.6821 9.87102 21.2903V17.0322C9.87102 16.6405 9.55309 16.3226 9.16135 16.3226H4.90328C4.51154 16.3226 4.1936 16.6405 4.1936 17.0322Z" fill="#50B83C"/>
<path fill-rule="evenodd" clip-rule="evenodd" d="M18.3872 8.51617V21.2904C18.3872 21.6821 18.7051 22 19.0969 22H23.3549C23.7467 22 24.0646 21.6821 24.0646 21.2904V8.51617C24.0646 8.12442 23.7467 7.80649 23.3549 7.80649H19.0969C18.7051 7.80649 18.3872 8.12442 18.3872 8.51617Z" fill="#50B83C"/>
<path fill-rule="evenodd" clip-rule="evenodd" d="M6.53062 8.30819C6.80811 8.58568 7.25662 8.58568 7.53411 8.30819L10.5808 5.26155L13.6274 8.30819C13.7658 8.44658 13.9475 8.51613 14.1291 8.51613C14.3108 8.51613 14.4925 8.44658 14.6309 8.30819L20.5162 2.42284V4.96774C20.5162 5.35948 20.8342 5.67742 21.2259 5.67742C21.6177 5.67742 21.9356 5.35948 21.9356 4.96774V0.709677C21.9356 0.617419 21.9164 0.525161 21.8809 0.438581C21.8086 0.26471 21.6709 0.127032 21.497 0.0546452C21.4104 0.0191613 21.3182 0 21.2259 0H16.9678C16.5761 0 16.2582 0.317935 16.2582 0.709677C16.2582 1.10142 16.5761 1.41935 16.9678 1.41935H19.5128L14.1291 6.80297L11.0825 3.75632C10.805 3.47884 10.3565 3.47884 10.079 3.75632L6.53062 7.30471C6.25314 7.58219 6.25314 8.03071 6.53062 8.30819Z" fill="#50B83C"/>
</g>
<defs>
<filter id="filter0_d" x="0.193604" y="0" width="27.871" height="31" filterUnits="userSpaceOnUse" color-interpolation-filters="sRGB">
<feFlood flood-opacity="0" result="BackgroundImageFix"/>
<feColorMatrix in="SourceAlpha" type="matrix" values="0 0 0 0 0 0 0 0 0 0 0 0 0 0 0 0 0 0 127 0"/>
<feOffset dy="5"/>
<feGaussianBlur stdDeviation="2"/>
<feColorMatrix type="matrix" values="0 0 0 0 0.313726 0 0 0 0 0.721569 0 0 0 0 0.235294 0 0 0 0.14 0"/>
<feBlend mode="normal" in2="BackgroundImageFix" result="effect1_dropShadow"/>
<feBlend mode="normal" in="SourceGraphic" in2="effect1_dropShadow" result="shape"/>
</filter>
</defs>
</svg>
